 <svg height="134" xmlns="http://www.w3.org/2000/svg">
          <path class="sinWave"
            d="M -29 446 L 0.4 98.95 L 0.8 97.9 L 1.2 96.86 L 1.6 95.82 L 2 94.78 L 2.4 93.75 L 2.8 92.72 L 3.2 91.7 L 3.6 90.69 L 4 89.69 L 4.4 88.7 L 4.8 87.72 L 5.21 86.75 L 5.61 85.79 L 6.01 84.85 L 6.41 83.93 L 6.81 83.02 L 7.21 82.12 L 7.61 81.25 L 8.01 80.39 L 8.41 79.55 L 8.81 78.73 L 9.21 77.94 L 9.61 77.16 L 10.01 76.41 L 10.41 75.68 L 10.81 74.98 L 11.21 74.3 L 11.61 73.64 L 12.01 73.01 L 12.41 72.41 L 12.81 71.84 L 13.21 71.29 L 13.61 70.77 L 14.01 70.28 L 14.41 69.82 L 14.81 69.39 L 15.22 68.99 L 15.62 68.62 L 16.02 68.29 L 16.42 67.98 L 16.82 67.7 L 17.22 67.46 L 17.62 67.25 L 18.02 67.07 L 18.42 66.92 L 18.82 66.81 L 19.22 66.73 L 19.62 66.68 L 20.02 66.67 L 20.42 66.68 L 20.82 66.74 L 21.22 66.82 L 21.62 66.94 L 22.02 67.09 L 22.42 67.27 L 22.82 67.48 L 23.22 67.73 L 23.62 68.01 L 24.02 68.32 L 24.42 68.66 L 24.82 69.03 L 25.23 69.43 L 25.63 69.87 L 26.03 70.33 L 26.43 70.82 L 26.83 71.34 L 27.23 71.89 L 27.63 72.47 L 28.03 73.08 L 28.43 73.71 L 28.83 74.36 L 29.23 75.05 L 29.63 75.75 L 30.03 76.49 L 30.43 77.24 L 30.83 78.02 L 31.23 78.82 L 31.63 79.64 L 32.03 80.48 L 32.43 81.33 L 32.83 82.21 L 33.23 83.11 L 33.63 84.02 L 34.03 84.95 L 34.43 85.89 L 34.83 86.85 L 35.24 87.81 L 35.64 88.8 L 36.04 89.79 L 36.44 90.79 L 36.84 91.8 L 37.24 92.82 L 37.64 93.85 L 38.04 94.88 L 38.44 95.92 L 38.84 96.96 L 39.24 98.01 L 39.64 99.06 L 40.04 100.1 L 40.44 101.15 L 40.84 102.2 L 41.24 103.24 L 41.64 104.29 L 42.04 105.32 L 42.44 106.36 L 42.84 107.38 L 43.24 108.4 L 43.64 109.41 L 44.04 110.41 L 44.44 111.4 L 44.84 112.38 L 45.25 113.35 L 45.65 114.3 L 46.05 115.24 L 46.45 116.16 L 46.85 117.07 L 47.25 117.97 L 47.65 118.84 L 48.05 119.69 L 48.45 120.53 L 48.85 121.35 L 49.25 122.14 L 49.65 122.91 L 50.05 123.66 L 50.45 124.39 L 50.85 125.09 L 51.25 125.77 L 51.65 126.42 L 52.05 127.05 L 52.45 127.65 L 52.85 128.22 L 53.25 128.76 L 53.65 129.28 L 54.05 129.76 L 54.45 130.22 L 54.85 130.65 L 55.26 131.05 L 55.66 131.41 L 56.06 131.75 L 56.46 132.05 L 56.86 132.32 L 57.26 132.56 L 57.66 132.77 L 58.06 132.95 L 58.46 133.09 L 58.86 133.2 L 59.26 133.28 L 59.66 133.32 L 60.06 133.33 L 60.46 133.31 L 60.86 133.26 L 61.26 133.17 L 61.66 133.05 L 62.06 132.9 L 62.46 132.71 L 62.86 132.49 L 63.26 132.24 L 63.66 131.96 L 64.06 131.65 L 64.46 131.31 L 64.86 130.93 L 65.27 130.52 L 65.67 130.09 L 66.07 129.62 L 66.47 129.13 L 66.87 128.6 L 67.27 128.05 L 67.67 127.47 L 68.07 126.86 L 68.47 126.23 L 68.87 125.57 L 69.27 124.88 L 69.67 124.17 L 70.07 123.44 L 70.47 122.68 L 70.87 121.9 L 71.27 121.1 L 71.67 120.28 L 72.07 119.44 L 72.47 118.58 L 72.87 117.7 L 73.27 116.8 L 73.67 115.89 L 74.07 114.96 L 74.47 114.02 L 74.87 113.06 L 75.28 112.09 L 75.68 111.1 L 76.08 110.11 L 76.48 109.11 L 76.88 108.09 L 77.28 107.07 L 77.68 106.05 L 78.08 105.01 L 78.48 103.97 L 78.88 102.93 L 79.28 101.89 L 79.68 100.84 L 80.08 99.79 L 80.48 98.74 L 80.88 97.7 L 81.28 96.65 L 81.68 95.61 L 82.08 94.57 L 82.48 93.54 L 82.88 92.52 L 83.28 91.5 L 83.68 90.49 L 84.08 89.49 L 84.48 88.5 L 84.88 87.52 L 85.29 86.56 L 85.69 85.6 L 86.09 84.67 L 86.49 83.74 L 86.89 82.84 L 87.29 81.95 L 87.69 81.07 L 88.09 80.22 L 88.49 79.39 L 88.89 78.57 L 89.29 77.78 L 89.69 77.01 L 90.09 76.26 L 90.49 75.54 L 90.89 74.84 L 91.29 74.16 L 91.69 73.52 L 92.09 72.89 L 92.49 72.3 L 92.89 71.73 L 93.29 71.19 L 93.69 70.67 L 94.09 70.19 L 94.49 69.73 L 94.89 69.31 L 95.3 68.92 L 95.7 68.55 L 96.1 68.22 L 96.5 67.92 L 96.9 67.65 L 97.3 67.41 L 97.7 67.21 L 98.1 67.04 L 98.5 66.9 L 98.9 66.79 L 99.3 66.72 L 99.7 66.68 L 100.1 66.67 L 100.5 66.69 L 100.9 66.75 L 101.3 66.84 L 101.7 66.96 L 102.1 67.12 L 102.5 67.31 L 102.9 67.53 L 103.3 67.78 L 103.7 68.07 L 104.1 68.38 L 104.5 68.73 L 104.9 69.11 L 105.31 69.52 L 105.71 69.96 L 106.11 70.43 L 106.51 70.93 L 106.91 71.45 L 107.31 72.01 L 107.71 72.59 L 108.11 73.2 L 108.51 73.84 L 108.91 74.5 L 109.31 75.19 L 109.71 75.9 L 110.11 76.63 L 110.51 77.39 L 110.91 78.17 L 111.31 78.98 L 111.71 79.8 L 112.11 80.65 L 112.51 81.51 L 112.91 82.39 L 113.31 83.29 L 113.71 84.2 L 114.11 85.13 L 114.51 86.08 L 114.91 87.04 L 115.32 88.01 L 115.72 88.99 L 116.12 89.99 L 116.52 90.99 L 116.92 92.01 L 117.32 93.03 L 117.72 94.06 L 118.12 95.09 L 118.52 96.13 L 118.92 97.17 L 119.32 98.22 L 119.72 99.27 L 120.12 100.31 L 120.52 101.36 L 120.92 102.41 L 121.32 103.45 L 121.72 104.49 L 122.12 105.53 L 122.52 106.56 L 122.92 107.59 L 123.32 108.6 L 123.72 109.61 L 124.12 110.61 L 124.52 111.6 L 124.92 112.57 L 125.33 113.54 L 125.73 114.49 L 126.13 115.43 L 126.53 116.35 L 126.93 117.25 L 127.33 118.14 L 127.73 119.01 L 128.13 119.86 L 128.53 120.7 L 128.93 121.51 L 129.33 122.3 L 129.73 123.06 L 130.13 123.81 L 130.53 124.53 L 130.93 125.23 L 131.33 125.9 L 131.73 126.55 L 132.13 127.17 L 132.53 127.76 L 132.93 128.33 L 133.33 128.87 L 133.73 129.38 L 134.13 129.86 L 134.53 130.31 L 134.93 130.73 L 135.34 131.12 L 135.74 131.48 L 136.14 131.81 L 136.54 132.11 L 136.94 132.37 L 137.34 132.61 L 137.74 132.81 L 138.14 132.98 L 138.54 133.11 L 138.94 133.22 L 139.34 133.29 L 139.74 133.33 L 140.14 133.33 L 140.54 133.3 L 140.94 133.24 L 141.34 133.15 L 141.74 133.02 L 142.14 132.86 L 142.54 132.67 L 142.94 132.45 L 143.34 132.19 L 143.74 131.9 L 144.14 131.58 L 144.54 131.23 L 144.94 130.85 L 145.35 130.44 L 145.75 130 L 146.15 129.52 L 146.55 129.02 L 146.95 128.49 L 147.35 127.94 L 147.75 127.35 L 148.15 126.74 L 148.55 126.1 L 148.95 125.43 L 149.35 124.74 L 149.75 124.03 L 150.15 123.29 L 150.55 122.53 L 150.95 121.75 L 151.35 120.94 L 151.75 120.11 L 152.15 119.27 L 152.55 118.4 L 152.95 117.52 L 153.35 116.62 L 153.75 115.7 L 154.15 114.77 L 154.55 113.83 L 154.95 112.86 L 155.36 111.89 L 155.76 110.91 L 156.16 109.91 L 156.56 108.91 L 156.96 107.89 L 157.36 106.87 L 157.76 105.84 L 158.16 104.81 L 158.56 103.77 L 158.96 102.72 L 159.36 101.68 L 159.76 100.63 L 160.16 99.58 L 160.56 98.53 L 160.96 97.49 L 161.36 96.44 L 161.76 95.4 L 162.16 94.37 L 162.56 93.34 L 162.96 92.31 L 163.36 91.3 L 163.76 90.29 L 164.16 89.29 L 164.56 88.3 L 164.96 87.33 L 165.37 86.37 L 165.77 85.42 L 166.17 84.48 L 166.57 83.56 L 166.97 82.66 L 167.37 81.77 L 167.77 80.9 L 168.17 80.05 L 168.57 79.22 L 168.97 78.41 L 169.37 77.63 L 169.77 76.86 L 170.17 76.12 L 170.57 75.4 L 170.97 74.7 L 171.37 74.03 L 171.77 73.39 L 172.17 72.77 L 172.57 72.18 L 172.97 71.62 L 173.37 71.08 L 173.77 70.57 L 174.17 70.1 L 174.57 69.65 L 174.97 69.23 L 175.38 68.84 L 175.78 68.48 L 176.18 68.16 L 176.58 67.86 L 176.98 67.6 L 177.38 67.37 L 177.78 67.17 L 178.18 67.01 L 178.58 66.87 L 178.98 66.77 L 179.38 66.71 L 179.78 66.67 L 180.18 66.67 L 180.58 66.7 L 180.98 66.77 L 181.38 66.86 L 181.78 66.99 L 182.18 67.16 L 182.58 67.35 L 182.98 67.58 L 183.38 67.84 L 183.78 68.13 L 184.18 68.45 L 184.58 68.8 L 184.98 69.19 L 185.39 69.6 L 185.79 70.05 L 186.19 70.52 L 186.59 71.03 L 186.99 71.56 L 187.39 72.12 L 187.79 72.71 L 188.19 73.33 L 188.59 73.97 L 188.99 74.63 L 189.39 75.33 L 189.79 76.04 L 190.19 76.78 L 190.59 77.55 L 190.99 78.33 L 191.39 79.14 L 191.79 79.97 L 192.19 80.82 L 192.59 81.68 L 192.99 82.57 L 193.39 83.47 L 193.79 84.39 L 194.19 85.32 L 194.59 86.27 L 194.99 87.23 L 195.4 88.21 L 195.8 89.19 L 196.2 90.19 L 196.6 91.2 L 197 92.21 L 197.4 93.23 L 197.8 94.26 L 198.2 95.3 L 198.6 96.34 L 199 97.38 L 199.4 98.43 L 199.8 99.48 L 200.2 100.52 L 200.6 101.57 L 201 102.62 L 201.4 103.66 L 201.8 104.7 L 202.2 105.74 L 202.6 106.77 L 203 107.79 L 203.4 108.8 L 203.8 109.81 L 204.2 110.81 L 204.6 111.79 L 205.01 112.77 L 205.41 113.73 L 205.81 114.68 L 206.21 115.61 L 206.61 116.53 L 207.01 117.43 L 207.41 118.32 L 207.81 119.18 L 208.21 120.03 L 208.61 120.86 L 209.01 121.67 L 209.41 122.45 L 209.81 123.22 L 210.21 123.96 L 210.61 124.67 L 211.01 125.37 L 211.41 126.03 L 211.81 126.67 L 212.21 127.29 L 212.61 127.88 L 213.01 128.44 L 213.41 128.97 L 213.81 129.48 L 214.21 129.95 L 214.61 130.4 L 215.02 130.81 L 215.42 131.2 L 215.82 131.55 L 216.22 131.87 L 216.62 132.16 L 217.02 132.42 L 217.42 132.65 L 217.82 132.84 L 218.22 133.01 L 218.62 133.14 L 219.02 133.23 L 219.42 133.3 L 219.82 133.33 L 220.22 133.33 L 220.62 133.29 L 221.02 133.23 L 221.42 133.13 L 221.82 132.99 L 222.22 132.83 L 222.62 132.63 L 223.02 132.4 L 223.42 132.14 L 223.82 131.84 L 224.22 131.52 L 224.62 131.16 L 225.03 130.77 L 225.43 130.35 L 225.83 129.9 L 226.23 129.43 L 226.63 128.92 L 227.03 128.38 L 227.43 127.82 L 227.83 127.23 L 228.23 126.61 L 228.63 125.97 L 229.03 125.3 L 229.43 124.6 L 229.83 123.88 L 230.23 123.14 L 230.63 122.37 L 231.03 121.59 L 231.43 120.78 L 231.83 119.95 L 232.23 119.1 L 232.63 118.23 L 233.03 117.34 L 233.43 116.44 L 233.83 115.52 L 234.23 114.58 L 234.63 113.63 L 235.04 112.67 L 235.44 111.7 L 235.84 110.71 L 236.24 109.71 L 236.64 108.7 L 237.04 107.69 L 237.44 106.66 L 237.84 105.63 L 238.24 104.6 L 238.64 103.56 L 239.04 102.51 L 239.44 101.47 L 239.84 100.42 L 240.24 99.37 L 240.64 98.32 L 241.04 97.28 L 241.44 96.23 L 241.84 95.19 L 242.24 94.16 L 242.64 93.13 L 243.04 92.11 L 243.44 91.09 L 243.84 90.09 L 244.24 89.09 L 244.64 88.11 L 245.05 87.14 L 245.45 86.17 L 245.85 85.23 L 246.25 84.3 L 246.65 83.38 L 247.05 82.48 L 247.45 81.6 L 247.85 80.73 L 248.25 79.89 L 248.65 79.06 L 249.05 78.25 L 249.45 77.47 L 249.85 76.71 L 250.25 75.97 L 250.65 75.26 L 251.05 74.57 L 251.45 73.9 L 251.85 73.26 L 252.25 72.65 L 252.65 72.06 L 253.05 71.51 L 253.45 70.98 L 253.85 70.48 L 254.25 70 L 254.65 69.56 L 255.06 69.15 L 255.46 68.77 L 255.86 68.42 L 256.26 68.1 L 256.66 67.81 L 257.06 67.55 L 257.46 67.33 L 257.86 67.14 L 258.26 66.98 L 258.66 66.85 L 259.06 66.76 L 259.46 66.7 L 259.86 66.67 L 260.26 66.67 L 260.66 66.71 L 261.06 66.78 L 261.46 66.89 L 261.86 67.02 L 262.26 67.19 L 262.66 67.39 L 263.06 67.63 L 263.46 67.89 L 263.86 68.19 L 264.26 68.52 L 264.66 68.88 L 265.07 69.27 L 265.47 69.69 L 265.87 70.14 L 266.27 70.62 L 266.67 71.13 L 267.07 71.67 L 267.47 72.24 L 267.87 72.83 L 268.27 73.45 L 268.67 74.1 L 269.07 74.77 L 269.47 75.47 L 269.87 76.19 L 270.27 76.94 L 270.67 77.7 L 271.07 78.49 L 271.47 79.3 L 271.87 80.14 L 272.27 80.99 L 272.67 81.86 L 273.07 82.75 L 273.47 83.65 L 273.87 84.57 L 274.27 85.51 L 274.67 86.46 L 275.08 87.43 L 275.48 88.4 L 275.88 89.39 L 276.28 90.39 L 276.68 91.4 L 277.08 92.41 L 277.48 93.44 L 277.88 94.47 L 278.28 95.51 L 278.68 96.55 L 279.08 97.59 L 279.48 98.64 L 279.88 99.69 L 280.28 100.73 L 280.68 101.78 L 281.08 102.83 L 281.48 103.87 L 281.88 104.91 L 282.28 105.94 L 282.68 106.97 L 283.08 107.99 L 283.48 109.01 L 283.88 110.01 L 284.28 111.01 L 284.68 111.99 L 285.09 112.96 L 285.49 113.92 L 285.89 114.87 L 286.29 115.8 L 286.69 116.71 L 287.09 117.61 L 287.49 118.49 L 287.89 119.35 L 288.29 120.2 L 288.69 121.02 L 289.09 121.83 L 289.49 122.61 L 289.89 123.37 L 290.29 124.1 L 290.69 124.81 L 291.09 125.5 L 291.49 126.16 L 291.89 126.8 L 292.29 127.41 L 292.69 127.99 L 293.09 128.55 L 293.49 129.07 L 293.89 129.57 L 294.29 130.04 L 294.69 130.48 L 295.1 130.89 L 295.5 131.27 L 295.9 131.62 L 296.3 131.93 L 296.7 132.22 L 297.1 132.47 L 297.5 132.69 L 297.9 132.88 L 298.3 133.04 L 298.7 133.16 L 299.1 133.25 L 299.5 133.31 L 299.9 133.33 L 300.3 133.32 L 300.7 133.28 L 301.1 133.21 L 301.5 133.1 L 301.9 132.96 L 302.3 132.79 L 302.7 132.59 L 303.1 132.35 L 303.5 132.08 L 303.9 131.78 L 304.3 131.45 L 304.7 131.08 L 305.11 130.69 L 305.51 130.27 L 305.91 129.81 L 306.31 129.33 L 306.71 128.81 L 307.11 128.27 L 307.51 127.7 L 307.91 127.11 L 308.31 126.48 L 308.71 125.84 L 309.11 125.16 L 309.51 124.46 L 309.91 123.74 L 310.31 122.99 L 310.71 122.22 L 311.11 121.43 L 311.51 120.61 L 311.91 119.78 L 312.31 118.93 L 312.71 118.05 L 313.11 117.16 L 313.51 116.26 L 313.91 115.33 L 314.31 114.4 L 314.71 113.44 L 315.12 112.48 L 315.52 111.5 L 315.92 110.51 L 316.32 109.51 L 316.72 108.5 L 317.12 107.48 L 317.52 106.46 L 317.92 105.43 L 318.32 104.39 L 318.72 103.35 L 319.12 102.3 L 319.52 101.26 L 319.92 100.21 L 320.32 99.16 L 320.72 98.11 L 321.12 97.07 L 321.52 96.03 L 321.92 94.99 L 322.32 93.95 L 322.72 92.93 L 323.12 91.91 L 323.52 90.89 L 323.92 89.89 L 324.32 88.9 L 324.72 87.91 L 325.13 86.94 L 325.53 85.98 L 325.93 85.04 L 326.33 84.11 L 326.73 83.2 L 327.13 82.3 L 327.53 81.42 L 327.93 80.56 L 328.33 79.72 L 328.73 78.9 L 329.13 78.1 L 329.53 77.32 L 329.93 76.56 L 330.33 75.83 L 330.73 75.12 L 331.13 74.43 L 331.53 73.77 L 331.93 73.14 L 332.33 72.53 L 332.73 71.95 L 333.13 71.4 L 333.53 70.87 L 333.93 70.38 L 334.33 69.91 L 334.73 69.48 L 335.14 69.07 L 335.54 68.69 L 335.94 68.35 L 336.34 68.04 L 336.74 67.76 L 337.14 67.51 L 337.54 67.29 L 337.94 67.1 L 338.34 66.95 L 338.74 66.83 L 339.14 66.74 L 339.54 66.69 L 339.94 66.67 L 340.34 66.68 L 340.74 66.72 L 341.14 66.8 L 341.54 66.91 L 341.94 67.05 L 342.34 67.23 L 342.74 67.44 L 343.14 67.68 L 343.54 67.95 L 343.94 68.25 L 344.34 68.59 L 344.74 68.95 L 345.15 69.35 L 345.55 69.78 L 345.95 70.24 L 346.35 70.72 L 346.75 71.24 L 347.15 71.78 L 347.55 72.35 L 347.95 72.95 L 348.35 73.58 L 348.75 74.23 L 349.15 74.91 L 349.55 75.61 L 349.95 76.34 L 350.35 77.09 L 350.75 77.86 L 351.15 78.65 L 351.55 79.47 L 351.95 80.31 L 352.35 81.16 L 352.75 82.03 L 353.15 82.93 L 353.55 83.84 L 353.95 84.76 L 354.35 85.7 L 354.75 86.65 L 355.16 87.62 L 355.56 88.6 L 355.96 89.59 L 356.36 90.59 L 356.76 91.6 L 357.16 92.62 L 357.56 93.64 L 357.96 94.68 L 358.36 95.71 L 358.76 96.76 L 359.16 97.8 L 359.56 98.85 L 359.96 99.9 L 360.36 100.94 L 360.76 101.99 L 361.16 103.04 L 361.56 104.08 L 361.96 105.12 L 362.36 106.15 L 362.76 107.18 L 363.16 108.2 L 363.56 109.21 L 363.96 110.21 L 364.36 111.2 L 364.76 112.19 L 365.17 113.15 L 365.57 114.11 L 365.97 115.05 L 366.37 115.98 L 366.77 116.89 L 367.17 117.79 L 367.57 118.67 L 367.97 119.52 L 368.37 120.36 L 368.77 121.18 L 369.17 121.98 L 369.57 122.76 L 369.97 123.51 L 370.37 124.25 L 370.77 124.95 L 371.17 125.64 L 371.57 126.29 L 371.97 126.92 L 372.37 127.53 L 372.77 128.11 L 373.17 128.66 L 373.57 129.18 L 373.97 129.67 L 374.37 130.13 L 374.77 130.57 L 375.18 130.97 L 375.58 131.34 L 375.98 131.68 L 376.38 131.99 L 376.78 132.27 L 377.18 132.52 L 377.58 132.73 L 377.98 132.91 L 378.38 133.06 L 378.78 133.18 L 379.18 133.26 L 379.58 133.32 L 379.98 133.33 L 380.38 133.32 L 380.78 133.27 L 381.18 133.19 L 381.58 133.08 L 381.98 132.93 L 382.38 132.75 L 382.78 132.54 L 383.18 132.3 L 383.58 132.02 L 383.98 131.71 L 384.38 131.38 L 384.78 131.01 L 385.19 130.61 L 385.59 130.18 L 385.99 129.72 L 386.39 129.23 L 386.79 128.71 L 387.19 128.16 L 387.59 127.59 L 387.99 126.99 L 388.39 126.36 L 388.79 125.7 L 389.19 125.02 L 389.59 124.32 L 389.99 123.59 L 390.39 122.84 L 390.79 122.06 L 391.19 121.27 L 391.59 120.45 L 391.99 119.61 L 392.39 118.75 L 392.79 117.88 L 393.19 116.98 L 393.59 116.07 L 393.99 115.15 L 394.39 114.21 L 394.79 113.25 L 395.2 112.28 L 395.6 111.3 L 396 110.31 L 396.4 109.31 L 396.8 108.3 L 397.2 107.28 L 397.6 106.25 L 398 105.22 L 398.4 104.18 L 398.8 103.14 L 399.2 102.1 L 399.6 101.05 L 515 361 Z" />
</svg>